<svg viewBox="0 0 800 1070" xmlns="http://www.w3.org/2000/svg"><path d="M542 632l-140-270-142 270 282 0m173 0l0 36-632 0 0-36 55 0 264-503 262 503 51 0m-620-595q-32 0-55.5 23-23.5 23-23.5 57l0 606q0 17 6.5 31.5 6.5 14.5 17 25.5 10.5 11 25 17.5 14.5 6.5 30.5 6.5l608 0q33 0 55.5-23.5 22.5-23.5 22.5-57.5l0-606q0-34-22.5-57-22.5-23-55.5-23l-608 0m0 783q-40 0-67.5-28-27.5-28-27.5-69l0-606q0-40 27.5-67.5 27.5-27.5 67.5-27.5l608 0q40 0 68 27.5 28 27.5 28 67.5l0 606q0 41-28 69-28 28-68 28l-608 0z"/></svg>