<svg viewBox="0 0 802 1070" xmlns="http://www.w3.org/2000/svg"><path d="M703 33q33 0 56 23.5 23 23.5 23 56.5l0 614q0 33-23 56.5-23 23.5-56 23.5l-609 0q-33 0-56.5-23.5-23.5-23.5-23.5-56.5l0-614q0-33 23.5-56.5 23.5-23.5 56.5-23.5l609 0m-32 394q-4-6-10-10-5-4-13.5-7.5-8.5-3.5-22.5-5.5l-87-16-46-76 0-1q-7-7-14-7-7 0-12 5-6 6-6 13 0 4 1 6l35 59-43 73-88-33 0-32 68 0q8 0 11-2 16-6 16-23 0-3-2-9-2-8-8.5-12.5-6.5-4.5-14.5-4.5l-70 0 0-57q0-22-15-38-15-16-38-16-23 0-38.5 16-15.5 16-15.5 38l0 132q0 13 6 23 6 10 14 18l-120 0-64 118q-2 3-2 9 0 8 6 14 6 6 14 6l442 0q5 0 17-3 12-3 29-17l114-84-43-76m-624 268l255 0 20-39-255 0-22 39 2 0m332 0l278 0q21-3 33-9 7-3 12-7l57-43 0-49-55 44q-13 10-22 15-9 5-15 7-7 3-13 3l-253 0-22 39m-41-473q23 0 38-15.5 15-15.5 15-37.5 0-23-15-38.5-15-15.5-38-15.5-23 0-38 15.5-15 15.5-15 38.5 0 22 15 37.5 15 15.5 38 15.5z"/></svg>